<mxfile host="app.diagrams.net" modified="2023-11-29T03:51:41.834Z" agent="Mozilla/5.0 (X11; Ubuntu; Linux x86_64; rv:120.0) Gecko/20100101 Firefox/120.0" etag="T9dGWZb3Lu6GTCkm8Vhs" version="22.1.4" type="device">
  <diagram name="Page-1" id="jU206vBL4w0bXF8vE2Xt">
    <mxGraphModel dx="1167" dy="768" grid="0" gridSize="10" guides="1" tooltips="1" connect="1" arrows="1" fold="1" page="1" pageScale="1" pageWidth="850" pageHeight="1100" background="#FFFFFF" math="0" shadow="0">
      <root>
        <mxCell id="0" />
        <mxCell id="1" parent="0" />
        <mxCell id="xbBeAjQMTuWws0xsEOKr-31" value="" style="edgeStyle=orthogonalEdgeStyle;rounded=0;orthogonalLoop=1;jettySize=auto;html=1;" edge="1" parent="1" source="xbBeAjQMTuWws0xsEOKr-1" target="xbBeAjQMTuWws0xsEOKr-29">
          <mxGeometry relative="1" as="geometry" />
        </mxCell>
        <mxCell id="xbBeAjQMTuWws0xsEOKr-1" value="&lt;font style=&quot;font-size: 15px;&quot;&gt;start&lt;/font&gt;" style="ellipse;whiteSpace=wrap;html=1;" vertex="1" parent="1">
          <mxGeometry x="361.5" y="85" width="120" height="60" as="geometry" />
        </mxCell>
        <mxCell id="xbBeAjQMTuWws0xsEOKr-6" value="" style="edgeStyle=orthogonalEdgeStyle;rounded=0;orthogonalLoop=1;jettySize=auto;html=1;" edge="1" parent="1" source="xbBeAjQMTuWws0xsEOKr-2" target="xbBeAjQMTuWws0xsEOKr-5">
          <mxGeometry relative="1" as="geometry" />
        </mxCell>
        <mxCell id="xbBeAjQMTuWws0xsEOKr-2" value="&lt;font style=&quot;font-size: 14px;&quot;&gt;get user input&lt;br&gt;&lt;/font&gt;" style="rounded=0;whiteSpace=wrap;html=1;" vertex="1" parent="1">
          <mxGeometry x="361" y="292" width="120" height="60" as="geometry" />
        </mxCell>
        <mxCell id="xbBeAjQMTuWws0xsEOKr-13" value="" style="edgeStyle=orthogonalEdgeStyle;rounded=0;orthogonalLoop=1;jettySize=auto;html=1;" edge="1" parent="1" source="xbBeAjQMTuWws0xsEOKr-4" target="xbBeAjQMTuWws0xsEOKr-12">
          <mxGeometry relative="1" as="geometry" />
        </mxCell>
        <mxCell id="xbBeAjQMTuWws0xsEOKr-4" value="&lt;font style=&quot;font-size: 14px;&quot;&gt;update matrix&lt;br&gt;&lt;/font&gt;" style="rounded=0;whiteSpace=wrap;html=1;" vertex="1" parent="1">
          <mxGeometry x="361" y="522" width="120" height="60" as="geometry" />
        </mxCell>
        <mxCell id="xbBeAjQMTuWws0xsEOKr-7" style="edgeStyle=orthogonalEdgeStyle;rounded=0;orthogonalLoop=1;jettySize=auto;html=1;entryX=0;entryY=0.5;entryDx=0;entryDy=0;" edge="1" parent="1" source="xbBeAjQMTuWws0xsEOKr-5" target="xbBeAjQMTuWws0xsEOKr-29">
          <mxGeometry relative="1" as="geometry">
            <Array as="points">
              <mxPoint x="286" y="432" />
              <mxPoint x="286" y="213" />
            </Array>
          </mxGeometry>
        </mxCell>
        <mxCell id="xbBeAjQMTuWws0xsEOKr-8" value="&amp;nbsp;&amp;nbsp; NO&amp;nbsp;&amp;nbsp; " style="edgeLabel;html=1;align=center;verticalAlign=middle;resizable=0;points=[];" vertex="1" connectable="0" parent="xbBeAjQMTuWws0xsEOKr-7">
          <mxGeometry x="-0.68" relative="1" as="geometry">
            <mxPoint x="24" as="offset" />
          </mxGeometry>
        </mxCell>
        <mxCell id="xbBeAjQMTuWws0xsEOKr-9" style="edgeStyle=orthogonalEdgeStyle;rounded=0;orthogonalLoop=1;jettySize=auto;html=1;exitX=0.5;exitY=1;exitDx=0;exitDy=0;" edge="1" parent="1" source="xbBeAjQMTuWws0xsEOKr-5" target="xbBeAjQMTuWws0xsEOKr-4">
          <mxGeometry relative="1" as="geometry" />
        </mxCell>
        <mxCell id="xbBeAjQMTuWws0xsEOKr-10" value="YES" style="edgeLabel;html=1;align=center;verticalAlign=middle;resizable=0;points=[];" vertex="1" connectable="0" parent="xbBeAjQMTuWws0xsEOKr-9">
          <mxGeometry x="-0.36" y="-1" relative="1" as="geometry">
            <mxPoint x="1" y="4" as="offset" />
          </mxGeometry>
        </mxCell>
        <mxCell id="xbBeAjQMTuWws0xsEOKr-5" value="&lt;font style=&quot;font-size: 14px;&quot;&gt;is the input valid?&lt;/font&gt;" style="rhombus;whiteSpace=wrap;html=1;" vertex="1" parent="1">
          <mxGeometry x="351" y="392" width="140" height="80" as="geometry" />
        </mxCell>
        <mxCell id="xbBeAjQMTuWws0xsEOKr-19" style="edgeStyle=orthogonalEdgeStyle;rounded=0;orthogonalLoop=1;jettySize=auto;html=1;entryX=1;entryY=0.25;entryDx=0;entryDy=0;" edge="1" parent="1" source="xbBeAjQMTuWws0xsEOKr-11" target="xbBeAjQMTuWws0xsEOKr-29">
          <mxGeometry relative="1" as="geometry">
            <Array as="points">
              <mxPoint x="613" y="792" />
              <mxPoint x="613" y="198" />
            </Array>
          </mxGeometry>
        </mxCell>
        <mxCell id="xbBeAjQMTuWws0xsEOKr-20" value="&amp;nbsp;&amp;nbsp; NO&amp;nbsp;&amp;nbsp; " style="edgeLabel;html=1;align=center;verticalAlign=middle;resizable=0;points=[];" vertex="1" connectable="0" parent="xbBeAjQMTuWws0xsEOKr-19">
          <mxGeometry x="-0.9109" y="-3" relative="1" as="geometry">
            <mxPoint x="-3" y="-4" as="offset" />
          </mxGeometry>
        </mxCell>
        <mxCell id="xbBeAjQMTuWws0xsEOKr-23" value="" style="edgeStyle=orthogonalEdgeStyle;rounded=0;orthogonalLoop=1;jettySize=auto;html=1;entryX=0.5;entryY=0;entryDx=0;entryDy=0;" edge="1" parent="1" source="xbBeAjQMTuWws0xsEOKr-11" target="xbBeAjQMTuWws0xsEOKr-26">
          <mxGeometry relative="1" as="geometry">
            <mxPoint x="421" y="892" as="targetPoint" />
          </mxGeometry>
        </mxCell>
        <mxCell id="xbBeAjQMTuWws0xsEOKr-24" value="YES" style="edgeLabel;html=1;align=center;verticalAlign=middle;resizable=0;points=[];" vertex="1" connectable="0" parent="xbBeAjQMTuWws0xsEOKr-23">
          <mxGeometry x="-0.1067" y="1" relative="1" as="geometry">
            <mxPoint as="offset" />
          </mxGeometry>
        </mxCell>
        <mxCell id="xbBeAjQMTuWws0xsEOKr-11" value="&lt;div style=&quot;font-size: 14px;&quot;&gt;&lt;font style=&quot;font-size: 14px;&quot;&gt;is solution&amp;nbsp;&lt;/font&gt;&lt;/div&gt;&lt;div style=&quot;font-size: 14px;&quot;&gt;&lt;font style=&quot;font-size: 14px;&quot;&gt;correct?&lt;/font&gt;&lt;/div&gt;" style="rhombus;whiteSpace=wrap;html=1;" vertex="1" parent="1">
          <mxGeometry x="351" y="752" width="140" height="80" as="geometry" />
        </mxCell>
        <mxCell id="xbBeAjQMTuWws0xsEOKr-15" value="" style="edgeStyle=orthogonalEdgeStyle;rounded=0;orthogonalLoop=1;jettySize=auto;html=1;" edge="1" parent="1" source="xbBeAjQMTuWws0xsEOKr-12" target="xbBeAjQMTuWws0xsEOKr-11">
          <mxGeometry relative="1" as="geometry" />
        </mxCell>
        <mxCell id="xbBeAjQMTuWws0xsEOKr-16" value="YES" style="edgeLabel;html=1;align=center;verticalAlign=middle;resizable=0;points=[];" vertex="1" connectable="0" parent="xbBeAjQMTuWws0xsEOKr-15">
          <mxGeometry x="-0.2067" y="2" relative="1" as="geometry">
            <mxPoint x="-2" as="offset" />
          </mxGeometry>
        </mxCell>
        <mxCell id="xbBeAjQMTuWws0xsEOKr-17" style="edgeStyle=orthogonalEdgeStyle;rounded=0;orthogonalLoop=1;jettySize=auto;html=1;" edge="1" parent="1" source="xbBeAjQMTuWws0xsEOKr-12" target="xbBeAjQMTuWws0xsEOKr-29">
          <mxGeometry relative="1" as="geometry">
            <mxPoint x="511" y="240" as="targetPoint" />
            <Array as="points">
              <mxPoint x="566" y="662" />
              <mxPoint x="566" y="224" />
            </Array>
          </mxGeometry>
        </mxCell>
        <mxCell id="xbBeAjQMTuWws0xsEOKr-18" value="&amp;nbsp; NO&amp;nbsp;&amp;nbsp; " style="edgeLabel;html=1;align=center;verticalAlign=middle;resizable=0;points=[];" vertex="1" connectable="0" parent="xbBeAjQMTuWws0xsEOKr-17">
          <mxGeometry x="0.004" y="-3" relative="1" as="geometry">
            <mxPoint x="-41" y="226" as="offset" />
          </mxGeometry>
        </mxCell>
        <mxCell id="xbBeAjQMTuWws0xsEOKr-12" value="&lt;font style=&quot;font-size: 14px;&quot;&gt;is the grid full?&lt;/font&gt;" style="rhombus;whiteSpace=wrap;html=1;" vertex="1" parent="1">
          <mxGeometry x="351" y="622" width="140" height="80" as="geometry" />
        </mxCell>
        <mxCell id="xbBeAjQMTuWws0xsEOKr-26" value="&lt;font style=&quot;font-size: 16px;&quot;&gt;SUDOKU completed&lt;/font&gt;" style="ellipse;shape=doubleEllipse;whiteSpace=wrap;html=1;" vertex="1" parent="1">
          <mxGeometry x="319" y="902" width="205" height="60" as="geometry" />
        </mxCell>
        <mxCell id="xbBeAjQMTuWws0xsEOKr-27" value="" style="endArrow=none;html=1;rounded=0;entryX=0;entryY=0.5;entryDx=0;entryDy=0;" edge="1" parent="1" target="xbBeAjQMTuWws0xsEOKr-1">
          <mxGeometry width="50" height="50" relative="1" as="geometry">
            <mxPoint x="346.5" y="125" as="sourcePoint" />
            <mxPoint x="356.5" y="125" as="targetPoint" />
          </mxGeometry>
        </mxCell>
        <mxCell id="xbBeAjQMTuWws0xsEOKr-28" value="" style="endArrow=none;html=1;rounded=0;exitX=0.003;exitY=0.52;exitDx=0;exitDy=0;exitPerimeter=0;" edge="1" parent="1" source="xbBeAjQMTuWws0xsEOKr-1">
          <mxGeometry width="50" height="50" relative="1" as="geometry">
            <mxPoint x="356.5" y="135" as="sourcePoint" />
            <mxPoint x="346.5" y="105" as="targetPoint" />
          </mxGeometry>
        </mxCell>
        <mxCell id="xbBeAjQMTuWws0xsEOKr-30" value="" style="edgeStyle=orthogonalEdgeStyle;rounded=0;orthogonalLoop=1;jettySize=auto;html=1;" edge="1" parent="1" source="xbBeAjQMTuWws0xsEOKr-29" target="xbBeAjQMTuWws0xsEOKr-2">
          <mxGeometry relative="1" as="geometry" />
        </mxCell>
        <mxCell id="xbBeAjQMTuWws0xsEOKr-29" value="&lt;div style=&quot;font-size: 14px;&quot;&gt;&lt;font style=&quot;font-size: 14px;&quot;&gt;update and &lt;br&gt;&lt;/font&gt;&lt;/div&gt;&lt;div style=&quot;font-size: 14px;&quot;&gt;&lt;font style=&quot;font-size: 14px;&quot;&gt;display grid&lt;/font&gt;&lt;/div&gt;" style="rounded=0;whiteSpace=wrap;html=1;" vertex="1" parent="1">
          <mxGeometry x="361.5" y="183" width="120" height="60" as="geometry" />
        </mxCell>
      </root>
    </mxGraphModel>
  </diagram>
</mxfile>
